<svg width="28" height="24" viewBox="0 0 28 24" fill="none" xmlns="http://www.w3.org/2000/svg">
<path d="M28 24V21H0V24H28ZM28 13.5V10.5H0V13.5H28ZM14 3V0H0V3H14Z" fill="white"/>
<path d="M21.5641 3.26447L21.7743 3.4709L24.4204 6.09636C24.4657 6.1414 24.5358 6.1414 24.5811 6.09636L27.2272 3.4709L27.4374 3.26447C28.1875 2.51755 28.1875 1.3071 27.4374 0.562064H27.4333C26.6811 -0.186727 25.4611 -0.186729 24.711 0.560186L24.5008 0.770372L24.2906 0.560186C23.5384 -0.186729 22.3205 -0.186729 21.5683 0.560186H21.5641C20.812 1.30898 20.812 2.51943 21.5641 3.26634V3.26447Z" fill="white"/>
</svg>
