<svg width="32" height="32" viewBox="0 0 32 32" fill="none" xmlns="http://www.w3.org/2000/svg">
<g filter="url(#filter0_d_2950_13572)">
<path d="M16 24C12.675 24 9.84375 22.8313 7.50625 20.4938C5.16875 18.1562 4 15.325 4 12C4 8.675 5.16875 5.84375 7.50625 3.50625C9.84375 1.16875 12.675 0 16 0C18.125 0 19.9875 0.43125 21.5875 1.29375C23.1875 2.15625 24.575 3.3375 25.75 4.8375V0H28V9.525H18.475V7.275H24.775C23.825 5.775 22.6125 4.5625 21.1375 3.6375C19.6625 2.7125 17.95 2.25 16 2.25C13.275 2.25 10.9688 3.19375 9.08125 5.08125C7.19375 6.96875 6.25 9.275 6.25 12C6.25 14.725 7.19375 17.0312 9.08125 18.9188C10.9688 20.8063 13.275 21.75 16 21.75C18.075 21.75 19.975 21.1562 21.7 19.9688C23.425 18.7812 24.625 17.2125 25.3 15.2625H27.625C26.9 17.8875 25.4625 20 23.3125 21.6C21.1625 23.2 18.725 24 16 24Z" fill="white"/>
</g>
<defs>
<filter id="filter0_d_2950_13572" x="0" y="0" width="32" height="32" filterUnits="userSpaceOnUse" color-interpolation-filters="sRGB">
<feFlood flood-opacity="0" result="BackgroundImageFix"/>
<feColorMatrix in="SourceAlpha" type="matrix" values="0 0 0 0 0 0 0 0 0 0 0 0 0 0 0 0 0 0 127 0" result="hardAlpha"/>
<feOffset dy="4"/>
<feGaussianBlur stdDeviation="2"/>
<feComposite in2="hardAlpha" operator="out"/>
<feColorMatrix type="matrix" values="0 0 0 0 0 0 0 0 0 0 0 0 0 0 0 0 0 0 0.25 0"/>
<feBlend mode="normal" in2="BackgroundImageFix" result="effect1_dropShadow_2950_13572"/>
<feBlend mode="normal" in="SourceGraphic" in2="effect1_dropShadow_2950_13572" result="shape"/>
</filter>
</defs>
</svg>
