<svg width="22" height="24" viewBox="0 0 22 24" fill="none" xmlns="http://www.w3.org/2000/svg">
<path d="M5.775 7.3C6.01944 7.3 6.23333 7.2 6.41667 7C6.6 6.8 6.69167 6.56667 6.69167 6.3C6.69167 6.03333 6.6 5.8 6.41667 5.6C6.23333 5.4 6.01944 5.3 5.775 5.3C5.53056 5.3 5.31667 5.4 5.13333 5.6C4.95 5.8 4.85833 6.03333 4.85833 6.3C4.85833 6.56667 4.95 6.8 5.13333 7C5.31667 7.2 5.53056 7.3 5.775 7.3ZM5.775 13C6.01944 13 6.23333 12.9 6.41667 12.7C6.6 12.5 6.69167 12.2667 6.69167 12C6.69167 11.7333 6.6 11.5 6.41667 11.3C6.23333 11.1 6.01944 11 5.775 11C5.53056 11 5.31667 11.1 5.13333 11.3C4.95 11.5 4.85833 11.7333 4.85833 12C4.85833 12.2667 4.95 12.5 5.13333 12.7C5.31667 12.9 5.53056 13 5.775 13ZM5.775 18.7C6.01944 18.7 6.23333 18.6 6.41667 18.4C6.6 18.2 6.69167 17.9667 6.69167 17.7C6.69167 17.4333 6.6 17.2 6.41667 17C6.23333 16.8 6.01944 16.7 5.775 16.7C5.53056 16.7 5.31667 16.8 5.13333 17C4.95 17.2 4.85833 17.4333 4.85833 17.7C4.85833 17.9667 4.95 18.2 5.13333 18.4C5.31667 18.6 5.53056 18.7 5.775 18.7ZM1.83333 24C1.34444 24 0.916667 23.8 0.55 23.4C0.183333 23 0 22.5333 0 22V2C0 1.46667 0.183333 1 0.55 0.6C0.916667 0.2 1.34444 0 1.83333 0H15.95L22 6.6V22C22 22.5333 21.8167 23 21.45 23.4C21.0833 23.8 20.6556 24 20.1667 24H1.83333ZM1.83333 22H20.1667V7.7143H14.9417V2H1.83333V22Z" fill="black" fill-opacity="0.7"/>
</svg>
