<svg width="19" height="24" viewBox="0 0 19 24" fill="none" xmlns="http://www.w3.org/2000/svg">
<path d="M4.72031 18.9H14.2797V17.1H4.72031V18.9ZM4.72031 13.8H14.2797V12H4.72031V13.8ZM1.78125 24C1.30625 24 0.890625 23.82 0.534375 23.46C0.178125 23.1 0 22.68 0 22.2V1.8C0 1.32 0.178125 0.9 0.534375 0.54C0.890625 0.18 1.30625 0 1.78125 0H12.4984L19 6.57V22.2C19 22.68 18.8219 23.1 18.4656 23.46C18.1094 23.82 17.6938 24 17.2188 24H1.78125ZM11.6078 7.38V1.8H1.78125V22.2H17.2188V7.38H11.6078Z" fill="#484A4D"/>
</svg>
